<svg xmlns="http://www.w3.org/2000/svg" viewBox="0 0 75.6 57.53"><defs><style>.cls-1{fill:#fff}</style></defs><g id="Capa_2" data-name="Capa 2"><g id="Capa_1-2" data-name="Capa 1"><path d="M0 28.17c.89-.92 1.77-1.86 2.68-2.77l16.6-16.6c1.28-1.28 1.95-1.27 3.26 0l3.13 3.2c1.37 1.36 1.37 2 0 3.37q-6.45 6.43-12.93 12.88c-.41.41-.4.62 0 1q6.51 6.48 13 13c1.27 1.27 1.28 2 0 3.22L22.27 49a1.67 1.67 0 01-2.73 0L.7 30.15a5.74 5.74 0 01-.7-.94zM75.6 28.75a2 2 0 01-.81 1.51l-17 17c-.56.56-1.11 1.12-1.67 1.67a1.7 1.7 0 01-2.79 0c-1.19-1.17-2.37-2.36-3.55-3.54s-1.16-1.92 0-3.06l12.4-12.4a7.19 7.19 0 01.73-.73c.43-.33.35-.55 0-.9q-6.54-6.51-13-13c-1.26-1.26-1.26-2 0-3.21s2.33-2.34 3.5-3.5a1.72 1.72 0 012.75 0l18.72 18.76a1.91 1.91 0 01.72 1.4zM44.17 0a25.26 25.26 0 014 1.28c.76.38.92 1.12.6 2.19-.64 2.18-1.29 4.36-1.93 6.54l-13.5 45.7a5.2 5.2 0 01-.25.76 1.57 1.57 0 01-2 1c-1-.28-2-.58-3-.89a1.72 1.72 0 01-1.34-2.51c1.09-3.7 2.2-7.4 3.29-11.1Q36.17 22.4 42.23 1.83C42.61.52 43.14 0 44.17 0z" class="cls-1"/></g></g></svg>