<svg xmlns="http://www.w3.org/2000/svg" viewBox="0 0 115.73 110.79"><defs><style>.cls-1{fill:#fff;}</style></defs><title>gitRecurso 10</title><g id="Capa_2" data-name="Capa 2"><g id="Capa_1-2" data-name="Capa 1"><path class="cls-1" d="M68.42,81.91a13.64,13.64,0,0,1,3.64,8.79c.32,5.31,0,10.61,0,15.92,0,3.79,1.54,4.91,5.09,3.69,24.12-8.33,40.68-32,38.35-58.18-1.08-12.2-5.43-23.06-13.61-32.11C86.59,3.05,67.47-3.06,45.11,1.42A56.75,56.75,0,0,0,0,55.11C-.41,71.46,5.39,85.48,17,97a55.53,55.53,0,0,0,21.93,13.46c2.76.92,4.46-.23,4.47-3,0-2.35,0-4.71,0-7.06,0-1.35.07-2.38-1.82-1.67a9.54,9.54,0,0,1-2.69.31c-6.37.33-12.66-2-15.36-8.93a15.8,15.8,0,0,0-6.49-8,6.6,6.6,0,0,1-1.49-1.3c-.61-.71-.5-1.28.45-1.64a5.35,5.35,0,0,1,3.19-.11c3.58.83,5.94,3.19,7.89,6.16,3.63,5.53,9.38,7.19,15.45,4.63.47-.2,1-.31,1.05-.86A13.58,13.58,0,0,1,47,82c-1.33-.2-2.46-.33-3.57-.53A32.79,32.79,0,0,1,29.54,75.8c-9.35-6.85-12-27-3.77-36.08.53-.58,1.1-1,.73-2.16a19.56,19.56,0,0,1,.22-12.24c.7-2.17.94-2.31,3.22-2a30,30,0,0,1,11.87,4.94,3.83,3.83,0,0,0,3.34.54,48.46,48.46,0,0,1,21.32-.74c4.06.82,7.42.73,10.87-1.75a18.45,18.45,0,0,1,8.77-3c1-.12,2-.25,2.46,1.13,1.23,3.86,1.84,7.77.8,11.72a4.07,4.07,0,0,0,1,4.35,12.9,12.9,0,0,1,2.31,3.85c3.22,7.26,2.45,14.58.09,21.83-2,6.06-6.17,10.22-12,12.75A42.44,42.44,0,0,1,68.42,81.91Z"/></g></g></svg>