<svg xmlns="http://www.w3.org/2000/svg" xmlns:xlink="http://www.w3.org/1999/xlink" viewBox="0 0 31.81 46.81"><defs><style>.cls-1,.cls-2,.cls-3{fill:none;}.cls-1,.cls-2,.cls-3,.cls-7,.cls-9{stroke:#1d1d1b;stroke-miterlimit:10;}.cls-2,.cls-6{clip-path:url(#clip-path);}.cls-3,.cls-8{clip-path:url(#clip-path-2);}.cls-4{isolation:isolate;}.cls-5,.cls-7{fill:#1d1d1b;}.cls-9{fill:#a8d7cf;}</style><clipPath id="clip-path"><path class="cls-1" d="M30.75,38.58,20.3,46.25q-1.28-.44-2.55-.81c-.86-.25-1.72-.47-2.58-.68s-1.73-.39-2.6-.56-1.74-.31-2.61-.43c-.67-.09-1.35-.17-2-.24s-1.35-.12-2-.16-1.36-.07-2-.09-1.35,0-2,0l9.87-7.93c.7,0,1.4,0,2.1,0s1.39,0,2.09.1,1.39.11,2.09.19,1.39.16,2.09.27c.9.13,1.79.28,2.69.46s1.79.38,2.68.6,1.77.46,2.66.73S29.87,38.27,30.75,38.58Z"/></clipPath><clipPath id="clip-path-2"><path class="cls-1" d="M11.71,35.35,1.84,43.28c-.11-2.84-.23-5.66-.34-8.46s-.22-5.58-.33-8.35S1,21,.84,18.24.62,12.82.51,10.12l9.54-9c.14,2.78.27,5.57.41,8.38s.27,5.65.41,8.5.28,5.73.42,8.62S11.57,32.42,11.71,35.35Z"/></clipPath></defs><title>final2Recurso 14</title><g id="Capa_2" data-name="Capa 2"><g id="Capa_1-2" data-name="Capa 1"><g class="cls-4"><g class="cls-4"><path class="cls-5" d="M6.79,14.37l9.76-8.82,1.05.12,1,.14L19.7,6l1.05.18c.8.14,1.59.29,2.38.46s1.58.36,2.37.56,1.57.42,2.35.66,1.57.48,2.34.75L20,17.17"/><path class="cls-1" d="M6.79,14.37l9.76-8.82,1.05.12,1,.14L19.7,6l1.05.18c.8.14,1.59.29,2.38.46s1.58.36,2.37.56,1.57.42,2.35.66,1.57.48,2.34.75L20,17.17"/></g><g class="cls-4"><path class="cls-5" d="M7.22,28.26l9.9-8.37L18,20l.83.11.83.11.82.13c.69.11,1.37.24,2.06.37s1.37.29,2.05.45,1.36.33,2,.52,1.36.38,2,.59l-11.08,8"/><path class="cls-1" d="M7.22,28.26l9.9-8.37L18,20l.83.11.83.11.82.13c.69.11,1.37.24,2.06.37s1.37.29,2.05.45,1.36.33,2,.52,1.36.38,2,.59l-11.08,8"/></g><g class="cls-4"><g class="cls-6"><g class="cls-4"><path class="cls-7" d="M30.75,38.58,20.3,46.25q-1.28-.44-2.55-.81c-.86-.25-1.72-.47-2.58-.68s-1.73-.39-2.6-.56-1.74-.31-2.61-.43c-.67-.09-1.35-.17-2-.24s-1.35-.12-2-.16-1.36-.07-2-.09-1.35,0-2,0l9.87-7.93c.7,0,1.4,0,2.1,0s1.39,0,2.09.1,1.39.11,2.09.19,1.39.16,2.09.27c.9.13,1.79.28,2.69.46s1.79.38,2.68.6,1.77.46,2.66.73,1.76.54,2.64.85"/></g></g><path class="cls-1" d="M30.75,38.58,20.3,46.25q-1.28-.44-2.55-.81c-.86-.25-1.72-.47-2.58-.68s-1.73-.39-2.6-.56-1.74-.31-2.61-.43c-.67-.09-1.35-.17-2-.24s-1.35-.12-2-.16-1.36-.07-2-.09-1.35,0-2,0l9.87-7.93c.7,0,1.4,0,2.1,0s1.39,0,2.09.1,1.39.11,2.09.19,1.39.16,2.09.27c.9.13,1.79.28,2.69.46s1.79.38,2.68.6,1.77.46,2.66.73S29.87,38.27,30.75,38.58Z"/><path class="cls-1" d="M30.75,38.58,20.3,46.25q-1.28-.44-2.55-.81c-.86-.25-1.72-.47-2.58-.68s-1.73-.39-2.6-.56-1.74-.31-2.61-.43c-.67-.09-1.35-.17-2-.24s-1.35-.12-2-.16-1.36-.07-2-.09-1.35,0-2,0l9.87-7.93c.7,0,1.4,0,2.1,0s1.39,0,2.09.1,1.39.11,2.09.19,1.39.16,2.09.27c.9.13,1.79.28,2.69.46s1.79.38,2.68.6,1.77.46,2.66.73S29.87,38.27,30.75,38.58Z"/></g><g class="cls-4"><g class="cls-8"><g class="cls-4"><path class="cls-7" d="M11.71,35.35,1.84,43.28c-.11-2.84-.23-5.66-.34-8.46s-.22-5.58-.33-8.35S1,21,.84,18.24.62,12.82.51,10.12l9.54-9c.14,2.78.27,5.57.41,8.38s.27,5.65.41,8.5.28,5.73.42,8.62.28,5.81.42,8.74"/></g></g><path class="cls-1" d="M11.71,35.35,1.84,43.28c-.11-2.84-.23-5.66-.34-8.46s-.22-5.58-.33-8.35S1,21,.84,18.24.62,12.82.51,10.12l9.54-9c.14,2.78.27,5.57.41,8.38s.27,5.65.41,8.5.28,5.73.42,8.62S11.57,32.42,11.71,35.35Z"/><path class="cls-1" d="M11.71,35.35,1.84,43.28c-.11-2.84-.23-5.66-.34-8.46s-.22-5.58-.33-8.35S1,21,.84,18.24.62,12.82.51,10.12l9.54-9c.14,2.78.27,5.57.41,8.38s.27,5.65.41,8.5.28,5.73.42,8.62S11.57,32.42,11.71,35.35Z"/></g><path class="cls-9" d="M20.86,2c.77.14,1.55.3,2.33.47s1.54.35,2.32.55,1.54.42,2.31.65,1.53.47,2.3.73c0,.35,0,.69,0,1s0,.69,0,1,0,.69,0,1,0,.69,0,1q-1.15-.4-2.34-.75c-.78-.24-1.57-.45-2.35-.66s-1.58-.39-2.37-.56-1.58-.32-2.38-.46L19.7,6l-1.05-.15-1-.14-1.05-.12c0,.84.07,1.67.1,2.51s.07,1.68.1,2.52.07,1.68.1,2.52.07,1.69.1,2.54l.9.1.9.11.89.13.9.14c.67.11,1.34.24,2,.37s1.33.28,2,.44l2,.51c.66.18,1.32.37,2,.58,0,.35,0,.7,0,1.05l0,1.06c0,.36,0,.71,0,1.07s0,.71,0,1.06c-.67-.21-1.35-.41-2-.59s-1.36-.36-2-.52-1.37-.31-2.05-.45-1.37-.26-2.06-.37l-.82-.13-.83-.11L18,20l-.83-.09c0,.94.08,1.88.11,2.82l.12,2.82c0,.95.07,1.9.11,2.84s.07,1.91.11,2.86l.66.07.65.08.65.09.66.09c.88.14,1.76.29,2.64.47s1.75.37,2.63.59,1.74.46,2.61.71,1.73.54,2.59.84c0,.37,0,.74,0,1.1l0,1.11c0,.36,0,.73,0,1.1s0,.73,0,1.1c-.88-.31-1.76-.59-2.64-.85s-1.77-.51-2.66-.73-1.78-.42-2.68-.6-1.79-.33-2.69-.46c-.7-.11-1.39-.2-2.09-.27s-1.39-.14-2.09-.19-1.4-.08-2.09-.1-1.4,0-2.1,0q-.21-4.39-.42-8.74T10.87,18c-.14-2.85-.27-5.68-.41-8.5s-.27-5.6-.41-8.38c.9,0,1.8,0,2.7,0s1.8.09,2.71.17,1.8.17,2.7.29S20,1.87,20.86,2Z"/></g></g></g></svg>